# xmcd CD database file
#
# Track frame offsets:
#	150
#	13285
#	25802
#	38637
#	51095
#	64822
#	80162
#	92612
#	104685
#	119079
#	133415
#	146480
#	162457
#	174742
#	187882
#	201109
#	214650
#	226165
#	240312
#	253745
#	266825
#	279795
#	291300
#	304855
#	317707
#
# Disc length: 4403 seconds
#
# Revision: 3
# Processed by: cddbd v1.5.1PL2 Copyright (c) Steve Scherf et al.
# Submitted via: CDex 1.51
#
DISCID=78113119
DTITLE=Carter Family, The - The Best Of The Carter Family Volume One - Keep On The Sunny Side
DYEAR=1900
DGENRE=
TTITLE0=Bury Me Under The Weeping Willow
TTITLE1=Single Girl, Married Girl
TTITLE2=Keep On The Sunny Side
TTITLE3=Anchored In Love
TTITLE4=I'm Thinking Tonight Of My Blues Eyes
TTITLE5=Diamonds In The Rough
TTITLE6=Worried Man Blues
TTITLE7=Lonesome Valley
TTITLE8=On The Sea Of Galilee
TTITLE9=If One Won't Another Will
TTITLE10=Over The Garden Wall
TTITLE11=Gold Watch And Chain
TTITLE12=I'm Working On A Building
TTITLE13=Are You Tired Of Me, My Darling?
TTITLE14=There's No Hiding Place Down There
TTITLE15=Longing For Old Virginia
TTITLE16=I'll Be Home Some Day
TTITLE17=You Are My Flower
TTITLE18=Coal Miner's Blues
TTITLE19=I Found You Among The Roses
TTITLE20=Bear Creek Blues
TTITLE21=Lonesome Homesick Blues
TTITLE22=Girl On The Greenbrier Shore
TTITLE23=Fifty Miles Of Elbow Room
TTITLE24=The Mountains Of Tennessee
EXTD=
EXTT0=
EXTT1=
EXTT2=
EXTT3=
EXTT4=
EXTT5=
EXTT6=
EXTT7=
EXTT8=
EXTT9=
EXTT10=
EXTT11=
EXTT12=
EXTT13=
EXTT14=
EXTT15=
EXTT16=
EXTT17=
EXTT18=
EXTT19=
EXTT20=
EXTT21=
EXTT22=
EXTT23=
EXTT24=
PLAYORDER=
